<svg width="19" height="14" viewBox="0 0 19 14" fill="none" xmlns="http://www.w3.org/2000/svg">
<path d="M18 5.28571H1M1 3.74286L1 10.2571C1 11.2172 1 11.6973 1.18529 12.064C1.34827 12.3865 1.60834 12.6488 1.92822 12.8132C2.29187 13 2.76791 13 3.72 13L15.28 13C16.2321 13 16.7081 13 17.0718 12.8132C17.3917 12.6488 17.6517 12.3865 17.8147 12.064C18 11.6973 18 11.2172 18 10.2571V3.74286C18 2.78277 18 2.30272 17.8147 1.93602C17.6517 1.61345 17.3917 1.3512 17.0718 1.18685C16.7081 1 16.2321 1 15.28 1L3.72 1C2.76791 1 2.29187 1 1.92822 1.18685C1.60834 1.3512 1.34827 1.61345 1.18529 1.93602C1 2.30272 1 2.78277 1 3.74286Z" stroke="#555454" style="stroke:#555454;stroke:color(display-p3 0.3333 0.3292 0.3292);stroke-opacity:1;" stroke-linecap="round" stroke-linejoin="round"/>
</svg>
