<svg width="14" height="14" viewBox="0 0 14 14" fill="none" xmlns="http://www.w3.org/2000/svg">
<path d="M13 11V7C13 3.68629 10.3137 1 7 1C3.68629 1 1 3.68629 1 7V11M2.66667 13C1.74619 13 1 12.2538 1 11.3333V10C1 9.07953 1.74619 8.33333 2.66667 8.33333C3.58714 8.33333 4.33333 9.07953 4.33333 10V11.3333C4.33333 12.2538 3.58714 13 2.66667 13ZM11.3333 13C10.4129 13 9.66667 12.2538 9.66667 11.3333V10C9.66667 9.07953 10.4129 8.33333 11.3333 8.33333C12.2538 8.33333 13 9.07953 13 10V11.3333C13 12.2538 12.2538 13 11.3333 13Z" stroke="#555454" style="stroke:#555454;stroke:color(display-p3 0.3333 0.3292 0.3292);stroke-opacity:1;" stroke-linecap="round" stroke-linejoin="round"/>
</svg>
