<svg width="15" height="14" viewBox="0 0 15 14" fill="none" xmlns="http://www.w3.org/2000/svg">
<path d="M10.3889 10.3333L14 7M14 7L10.3889 3.66667M14 7H5.33333M7.5 10.3333C7.5 10.9533 7.5 11.2633 7.42617 11.5176C7.22583 12.2078 6.64181 12.7469 5.89411 12.9319C5.61858 13 5.28276 13 4.61111 13H4.25C3.24046 13 2.73569 13 2.33752 12.8478C1.80663 12.6448 1.38483 12.2554 1.16493 11.7654C1 11.3978 1 10.9319 1 10V4C1 3.06812 1 2.60218 1.16493 2.23463C1.38483 1.74458 1.80663 1.35523 2.33752 1.15224C2.73569 1 3.24046 1 4.25 1H4.61111C5.28276 1 5.61858 1 5.89411 1.06815C6.64181 1.25308 7.22583 1.79218 7.42617 2.48236C7.5 2.7367 7.5 3.04669 7.5 3.66667" stroke="#555454" style="stroke:#555454;stroke:color(display-p3 0.3333 0.3292 0.3292);stroke-opacity:1;" stroke-linecap="round" stroke-linejoin="round"/>
</svg>
