<svg width="68" height="68" viewBox="0 0 68 68" fill="none" xmlns="http://www.w3.org/2000/svg">
<circle cx="34" cy="34" r="34" fill="white" style="fill:white;fill-opacity:1;"/>
<path d="M27.6654 47V32.15M21 34.85V44.3C21 45.7912 22.1937 47 23.6661 47H41.5643C43.5382 47 45.2169 45.5416 45.517 43.5658L46.9526 34.1158C47.3253 31.6625 45.451 29.45 42.9999 29.45H38.3299C37.5937 29.45 36.9969 28.8456 36.9969 28.1V23.3289C36.9969 21.4904 35.5252 20 33.7097 20C33.2767 20 32.8843 20.2582 32.7085 20.659L28.0172 31.3483C27.8033 31.8358 27.3259 32.15 26.799 32.15H23.6661C22.1937 32.15 21 33.3588 21 34.85Z" stroke="black" style="stroke:black;stroke-opacity:1;" stroke-width="3" stroke-linecap="round" stroke-linejoin="round"/>
</svg>
