<svg width="68" height="68" viewBox="0 0 68 68" fill="none" xmlns="http://www.w3.org/2000/svg">
<circle cx="34" cy="34" r="34" fill="white" style="fill:white;fill-opacity:1;"/>
<path d="M46.3967 22.1047C48.6644 25.3121 50 29.2473 50 33.5C50 37.7527 48.6644 41.6879 46.3967 44.8953M39.9925 26.9884C41.2579 28.8342 42 31.0789 42 33.5C42 35.9211 41.2579 38.1658 39.9925 40.0116M30.2149 21.0721L25.1498 26.2255C24.8731 26.5071 24.7347 26.6478 24.5733 26.7485C24.4301 26.8378 24.274 26.9035 24.1108 26.9434C23.9266 26.9884 23.731 26.9884 23.3396 26.9884H20.56C19.6639 26.9884 19.2159 26.9884 18.8736 27.1658C18.5726 27.3219 18.3278 27.5709 18.1744 27.8773C18 28.2255 18 28.6813 18 29.593V37.407C18 38.3187 18 38.7745 18.1744 39.1227C18.3278 39.4291 18.5726 39.6781 18.8736 39.8342C19.2159 40.0116 19.6639 40.0116 20.56 40.0116H23.3396C23.731 40.0116 23.9266 40.0116 24.1108 40.0566C24.274 40.0965 24.4301 40.1622 24.5733 40.2515C24.7347 40.3522 24.8731 40.4929 25.1498 40.7745L30.2149 45.9279C30.9003 46.6253 31.243 46.9739 31.5372 46.9975C31.7925 47.0179 32.042 46.9128 32.2083 46.7147C32.4 46.4863 32.4 45.9932 32.4 45.007V21.993C32.4 21.0068 32.4 20.5137 32.2083 20.2853C32.042 20.0872 31.7925 19.9821 31.5372 20.0025C31.243 20.0261 30.9003 20.3747 30.2149 21.0721Z" stroke="black" style="stroke:black;stroke-opacity:1;" stroke-width="3" stroke-linecap="round" stroke-linejoin="round"/>
</svg>
