<svg width="197" height="68" viewBox="0 0 197 68" fill="none" xmlns="http://www.w3.org/2000/svg">
<rect width="197" height="68" rx="20" fill="white" style="fill:white;fill-opacity:1;"/>
<path d="M120.643 21.2402V47.4902H117.977V34.0137H114.842V46.2012H112.205V21.7383H114.842V31.6699H117.977V21.2402H120.643ZM105.936 28.1836C105.936 32.9004 107.723 37.1777 111.531 39.1406L109.891 41.2793C107.312 39.8877 105.584 37.4414 104.646 34.3945C103.753 37.8516 102.01 40.6055 99.3438 42.1875L97.6152 40.0781C101.453 37.9102 103.24 33.3984 103.24 28.1836V26.4844H98.3184V24.2285H110.506V26.4844H105.936V28.1836ZM131.922 26.2793C131.922 29.1504 133.768 32.0508 137.166 33.3398L135.701 35.4785C133.255 34.541 131.541 32.7539 130.604 30.5859C129.637 33.0322 127.835 35.1562 125.301 36.2402L123.777 34.0723C127.322 32.5195 129.227 29.209 129.227 26.2793V22.8809H131.922V26.2793ZM146.277 21.2695V37.4121H143.641V30.3809H140.564V36.5918H137.986V21.7383H140.564V28.0957H143.641V21.2695H146.277ZM137.488 37.9102C142.967 37.9102 146.395 39.6973 146.424 42.6855C146.395 45.6738 142.967 47.4609 137.488 47.4316C132.01 47.4609 128.582 45.6738 128.611 42.6855C128.582 39.6973 132.01 37.9102 137.488 37.9102ZM137.488 40.0488C133.68 40.0488 131.336 41.0156 131.365 42.6855C131.336 44.3555 133.68 45.3223 137.488 45.293C141.297 45.3223 143.611 44.3555 143.641 42.6855C143.611 41.0156 141.297 40.0488 137.488 40.0488Z" fill="black" style="fill:black;fill-opacity:1;"/>
<path d="M71.8236 29.662C72.4809 30.0323 73.0307 30.5852 73.4141 31.2613C73.7975 31.9374 74 32.7113 74 33.5C74 34.2888 73.7975 35.0627 73.4141 35.7388C73.0307 36.4149 72.4809 36.9677 71.8236 37.3381L54.2908 47.4399C51.4677 49.0682 48 46.9513 48 43.6033V23.3982C48 20.0488 51.4677 17.9333 54.2908 19.5587L71.8236 29.662Z" fill="black" style="fill:black;fill-opacity:1;"/>
</svg>
