<svg width="40" height="40" viewBox="0 0 40 40" fill="none" xmlns="http://www.w3.org/2000/svg">
<path d="M20.0027 0H19.9973C8.95312 0 0 8.95311 0 19.9973V20.0027C0 31.0469 8.95312 40 19.9973 40H20.0027C31.0469 40 40 31.0469 40 20.0027V19.9973C40 8.95311 31.0469 0 20.0027 0Z" fill="#CC2E35" style="fill:#CC2E35;fill:color(display-p3 0.8000 0.1804 0.2078);fill-opacity:1;"/>
<path d="M15.7413 11.1921V28.8083H11.9059V16.2367C11.4585 16.4498 10.8192 16.6416 9.94562 16.7907L9.15723 13.1684C10.6275 12.657 11.7994 12.0178 12.5452 11.1868H15.7413V11.1921Z" fill="white" style="fill:white;fill-opacity:1;"/>
<path d="M24.0727 10.7659C28.3343 10.7659 30.529 12.7475 30.529 15.9863C30.529 17.6483 29.8472 19.2037 28.5261 19.9495C30.2307 20.8231 30.8486 22.5704 30.8486 24.1898C30.8486 27.1089 29.3145 29.261 24.0727 29.2397C18.831 29.261 17.2969 27.1089 17.2969 24.1898C17.2969 22.5704 17.9148 20.8231 19.6194 19.9495C18.2983 19.2037 17.6165 17.6483 17.6165 15.9863C17.6165 12.7475 19.8112 10.7659 24.0727 10.7659ZM20.7274 23.9341C20.7274 25.2978 21.7502 26.2566 24.0727 26.2566C26.3953 26.2566 27.4181 25.2978 27.4181 23.9341C27.4181 22.4212 26.374 21.4198 24.0727 21.4198C21.7715 21.4198 20.7274 22.4212 20.7274 23.9341ZM24.0727 18.4367C26.2461 18.4367 27.0984 17.4352 27.0984 16.1354C27.0984 14.6439 26.0118 13.749 24.0727 13.749C22.1337 13.749 21.047 14.6439 21.047 16.1354C21.047 17.4352 21.8994 18.4367 24.0727 18.4367Z" fill="white" style="fill:white;fill-opacity:1;"/>
</svg>
