<svg width="215" height="68" viewBox="0 0 215 68" fill="none" xmlns="http://www.w3.org/2000/svg">
<rect width="215" height="68" rx="20" fill="#4B4B4B" style="fill:#4B4B4B;fill:color(display-p3 0.2941 0.2941 0.2941);fill-opacity:1;"/>
<path d="M91.0195 25.4297C91.0195 28.8867 93.4219 32.0801 97.3477 33.3691L95.8535 35.5664C92.9824 34.5557 90.8291 32.5049 89.7012 29.9121C88.5439 32.8564 86.3174 35.1562 83.2559 36.2988L81.7617 34.0723C85.8633 32.6074 88.2363 29.1211 88.2656 25.1953V22.6172H91.0195V25.4297ZM102.592 21.2402V27.832H106.4V30.1758H102.592V37.0898H99.8086V21.2402H102.592ZM94.125 37.7051C99.5156 37.7051 102.826 39.4922 102.826 42.5684C102.826 45.6738 99.5156 47.4609 94.125 47.4316C88.6758 47.4609 85.3066 45.6738 85.3066 42.5684C85.3066 39.4922 88.6758 37.7051 94.125 37.7051ZM94.125 39.9023C90.3164 39.9023 88.0605 40.8984 88.0898 42.5684C88.0605 44.2969 90.3164 45.2344 94.125 45.2637C97.9043 45.2344 100.102 44.2969 100.102 42.5684C100.102 40.8984 97.9043 39.9023 94.125 39.9023ZM115.893 28.418C115.893 32.6074 117.65 37.0898 121.166 39.2285L119.613 41.3672C117.152 39.8877 115.482 37.2656 114.604 34.2188C113.622 37.5586 111.82 40.4004 109.271 41.9531L107.543 39.873C111.264 37.6465 113.197 33.0176 113.197 28.5352V23.6426H115.893V28.418ZM130.482 21.2402V47.4902H127.816V21.2402H130.482ZM125.033 21.7383V46.2012H122.396V32.7832H118.324V30.4688H122.396V21.7383H125.033ZM155.707 21.2402V36.8555H152.924V30.2051H148.031V27.9199H152.924V21.2402H155.707ZM146.918 37.5879C152.426 37.5879 155.795 39.4043 155.795 42.5391C155.795 45.6738 152.426 47.4609 146.918 47.4902C141.41 47.4609 138.012 45.6738 138.041 42.5391C138.012 39.4043 141.41 37.5879 146.918 37.5879ZM146.918 39.7559C143.08 39.7559 140.795 40.752 140.795 42.5391C140.795 44.2969 143.08 45.3223 146.918 45.293C150.756 45.3223 153.041 44.2969 153.041 42.5391C153.041 40.752 150.756 39.7559 146.918 39.7559ZM143.227 25.8691C143.227 29.209 145.6 32.4316 149.555 33.7793L148.119 35.9766C145.175 34.9512 143.007 32.8564 141.879 30.2637C140.722 33.208 138.422 35.5664 135.287 36.709L133.822 34.4824C137.895 33.0762 140.385 29.5312 140.385 25.8984V25.3125H134.701V23.0566H148.852V25.3125H143.227V25.8691ZM183.773 41.9238V44.2383H159.75V41.9238H170.326V36.5332H162.504V23.0273H165.287V27.5391H178.178V23.0273H180.932V36.5332H173.08V41.9238H183.773ZM165.287 34.2773H178.178V29.7949H165.287V34.2773Z" fill="white" style="fill:white;fill-opacity:1;"/>
<path d="M44.0274 50C52.7351 50 59.7941 42.8366 59.7941 34C59.7941 25.1634 52.7351 18 44.0274 18C35.3197 18 28.2607 25.1634 28.2607 34C28.2607 42.8366 35.3197 50 44.0274 50Z" stroke="white" style="stroke:white;stroke-opacity:1;" stroke-width="3"/>
<path d="M44.0273 33V43" stroke="white" style="stroke:white;stroke-opacity:1;" stroke-width="3" stroke-linecap="round"/>
<path d="M44.0276 30.0008C45.2043 30.0008 46.1582 29.0328 46.1582 27.8387C46.1582 26.6445 45.2043 25.6765 44.0276 25.6765C42.8509 25.6765 41.897 26.6445 41.897 27.8387C41.897 29.0328 42.8509 30.0008 44.0276 30.0008Z" fill="white" style="fill:white;fill-opacity:1;"/>
</svg>
