<svg width="64" height="34" viewBox="0 0 64 34" fill="none" xmlns="http://www.w3.org/2000/svg">
<path d="M60.7676 0H3.2324C1.44719 0 0 1.45549 0 3.25094V30.7491C0 32.5445 1.44719 34 3.2324 34H60.7676C62.5528 34 64 32.5445 64 30.7491V3.25094C64 1.45549 62.5528 0 60.7676 0Z" fill="#0066FF" style="fill:#0066FF;fill:color(display-p3 0.0000 0.4000 1.0000);fill-opacity:1;"/>
<path d="M21.2269 26.9213H16.4528L10.271 13.4681V26.9213H6.21191V7.05615H11.2988L17.1753 20.5543V7.05615H21.2344V26.9213H21.2269Z" fill="white" style="fill:white;fill-opacity:1;"/>
<path d="M27.3419 10.9213V15.0786H36.7039V18.9213H27.3419V23.0786H36.8231V26.9213H23.1636V7.05615H36.8231V10.9213H27.3419Z" fill="white" style="fill:white;fill-opacity:1;"/>
<path d="M42.8335 21.7528L45.6488 7.29585H49.9686L52.7839 21.7528L53.4989 7.05615H57.774L55.6961 26.8914H50.5868L47.8162 15.1685L45.0232 26.8914H39.9139L37.8359 7.05615H42.111L42.826 21.7528H42.8335Z" fill="white" style="fill:white;fill-opacity:1;"/>
</svg>
