<svg width="258" height="68" viewBox="0 0 258 68" fill="none" xmlns="http://www.w3.org/2000/svg">
<path d="M0 30C0 13.4315 13.4315 0 30 0H228C244.569 0 258 13.4315 258 30V68H0V30Z" fill="white" style="fill:white;fill-opacity:1;"/>
<path d="M45.9219 23.0293V45.2461H42.9434V34.04H40.9414V44.2207H37.9873V23.3467H40.9414V31.501H42.9434V23.0293H45.9219ZM36.1318 25.3242V39.6553H27.2939V25.3242H36.1318ZM30.1992 27.79V37.2139H33.2266V27.79H30.1992ZM68.5293 35.2852V37.7754H59.8867V45.2461H56.8105V37.7754H48.2656V35.2852H68.5293ZM66.7227 24.2012V26.6426H60.2529C60.5581 28.8154 63.0117 31.0005 67.5771 31.5498L66.4541 33.9912C62.5479 33.4663 59.7524 31.7939 58.4219 29.499C57.0547 31.7939 54.2837 33.4663 50.4141 33.9912L49.2666 31.5498C53.7588 31.0005 56.2368 28.8154 56.5908 26.6426H50.0967V24.2012H66.7227ZM82.8604 28.5469C82.8604 32.3555 83.9102 35.9688 87.0352 37.6289L85.2041 40.0947C83.2754 39.0449 82.0303 37.2505 81.2979 35.041C80.5044 37.4946 79.1738 39.5454 77.1719 40.7539L75.2188 38.4834C78.5635 36.4814 79.8086 32.5264 79.833 28.7666V24.9336H82.8604V28.5469ZM94.8965 23.0293V45.2461H91.918V34.1865H89.9893V44.2207H87.0596V23.3467H89.9893V31.6963H91.918V23.0293H94.8965ZM117.577 40.2168V42.7803H97.2402V40.2168H105.81V36.8721H99.584V29.4014H112.157V26.96H99.5596V24.4697H115.233V31.8428H102.709V34.333H115.746V36.8721H108.91V40.2168H117.577ZM139.159 33.8447V36.335H130.736V40.1924H127.587V36.335H118.822V33.8447H139.159ZM136.913 42.3408V44.8555H121.239V38.2148H124.389V42.3408H136.913ZM128.979 23.4443C133.788 23.4688 136.986 25.251 137.011 28.0586C136.986 30.8906 133.788 32.6484 128.979 32.6484C124.145 32.6484 120.922 30.8906 120.922 28.0586C120.922 25.251 124.145 23.4688 128.979 23.4443ZM128.979 25.9102C126.098 25.9102 124.267 26.6426 124.291 28.0586C124.267 29.4258 126.098 30.1582 128.979 30.1582C131.835 30.1582 133.666 29.4258 133.666 28.0586C133.666 26.6426 131.835 25.9102 128.979 25.9102ZM165.478 23.0293V45.2461H162.499V23.0293H165.478ZM160.839 23.3467V44.2207H157.909V33.7227H156.127C155.834 38.0928 153.979 40.7295 151.244 40.7295C148.314 40.7295 146.41 37.6533 146.41 32.6484C146.41 27.668 148.314 24.6162 151.244 24.6162C153.917 24.6162 155.749 27.1064 156.103 31.2568H157.909V23.3467H160.839ZM151.244 27.5459C149.999 27.5459 149.267 29.2549 149.291 32.6484C149.267 36.0664 149.999 37.751 151.244 37.7266C152.514 37.751 153.271 36.0664 153.271 32.6484C153.271 29.2549 152.514 27.5459 151.244 27.5459ZM186.498 23.0293V45.2461H183.349V23.0293H186.498ZM180.956 25.0801V27.5703H178.979V37.2139C179.955 37.1528 180.919 37.0552 181.859 36.9453L182.006 39.2646C177.27 40.0459 172.143 40.1191 168.065 40.1436L167.772 37.6045L170.336 37.5801V27.5703H168.383V25.0801H180.956ZM173.363 37.5068L175.951 37.4092V27.5703H173.363V37.5068ZM209.765 40.0947V42.585H189.428V40.0947H197.924V35.0654H201.024V40.0947H209.765ZM201.122 25.8857C201.122 29.0596 203.979 32.4043 209.057 33.1855L207.738 35.7734C203.832 35.0654 200.927 32.978 199.462 30.207C197.997 32.9658 195.116 35.0776 191.234 35.7734L189.916 33.1855C194.945 32.4043 197.777 29.0352 197.802 25.8857V24.2988H201.122V25.8857ZM229.149 33.3076V35.7979H213.427V24.8848H228.979V27.3994H216.503V33.3076H229.149ZM231.371 39.9727V42.5361H211.034V39.9727H231.371Z" fill="#151515" style="fill:#151515;fill:color(display-p3 0.0833 0.0833 0.0833);fill-opacity:1;"/>
</svg>
