<svg width="160" height="68" viewBox="0 0 160 68" fill="none" xmlns="http://www.w3.org/2000/svg">
<rect width="160" height="68" rx="20" fill="white" style="fill:white;fill-opacity:1;"/>
<path d="M99.6426 21.2402V47.4902H96.9766V34.0137H93.8418V46.2012H91.2051V21.7383H93.8418V31.6699H96.9766V21.2402H99.6426ZM84.9355 28.1836C84.9355 32.9004 86.7227 37.1777 90.5312 39.1406L88.8906 41.2793C86.3125 39.8877 84.584 37.4414 83.6465 34.3945C82.7529 37.8516 81.0098 40.6055 78.3438 42.1875L76.6152 40.0781C80.4531 37.9102 82.2402 33.3984 82.2402 28.1836V26.4844H77.3184V24.2285H89.5059V26.4844H84.9355V28.1836ZM110.922 26.2793C110.922 29.1504 112.768 32.0508 116.166 33.3398L114.701 35.4785C112.255 34.541 110.541 32.7539 109.604 30.5859C108.637 33.0322 106.835 35.1562 104.301 36.2402L102.777 34.0723C106.322 32.5195 108.227 29.209 108.227 26.2793V22.8809H110.922V26.2793ZM125.277 21.2695V37.4121H122.641V30.3809H119.564V36.5918H116.986V21.7383H119.564V28.0957H122.641V21.2695H125.277ZM116.488 37.9102C121.967 37.9102 125.395 39.6973 125.424 42.6855C125.395 45.6738 121.967 47.4609 116.488 47.4316C111.01 47.4609 107.582 45.6738 107.611 42.6855C107.582 39.6973 111.01 37.9102 116.488 37.9102ZM116.488 40.0488C112.68 40.0488 110.336 41.0156 110.365 42.6855C110.336 44.3555 112.68 45.3223 116.488 45.293C120.297 45.3223 122.611 44.3555 122.641 42.6855C122.611 41.0156 120.297 40.0488 116.488 40.0488Z" fill="#151515" style="fill:#151515;fill:color(display-p3 0.0833 0.0833 0.0833);fill-opacity:1;"/>
<path d="M53.1916 30.662C53.8642 31.0323 54.4268 31.5852 54.8192 32.2613C55.2115 32.9374 55.4188 33.7113 55.4188 34.5C55.4188 35.2888 55.2115 36.0627 54.8192 36.7388C54.4268 37.4149 53.8642 37.9677 53.1916 38.3381L35.25 48.4399C32.361 50.0682 28.8125 47.9513 28.8125 44.6033V24.3982C28.8125 21.0488 32.361 18.9333 35.25 20.5587L53.1916 30.662Z" fill="#151515" style="fill:#151515;fill:color(display-p3 0.0833 0.0833 0.0833);fill-opacity:1;"/>
</svg>
