<svg width="20" height="14" viewBox="0 0 20 14" fill="none" xmlns="http://www.w3.org/2000/svg">
<path d="M9.83293 8.26586C7.2803 8.26586 4.94565 8.17583 3.14648 8.02734C3.52243 11.3872 6.37203 13.9998 9.83293 13.9998C13.2938 13.9998 16.1434 11.3872 16.5194 8.02734C14.7202 8.17583 12.3856 8.26586 9.83293 8.26586Z" fill="#BCBCBC" style="fill:#BCBCBC;fill:color(display-p3 0.7373 0.7373 0.7373);fill-opacity:1;"/>
<path d="M10.1047 10.7429C7.57418 10.7429 4.9015 10.408 3.10865 9.99735C0.233781 9.33866 0 8.50779 0 7.56635C0 6.62649 0.549701 6.16998 3.42299 5.51129C5.21584 5.10059 7.25352 5.33753 9.78246 5.33753C12.3114 5.33753 14.5639 5.17009 16.3568 5.58079C19.2316 6.23948 19.6218 6.62649 19.6218 7.56635C19.6218 8.50621 19.388 9.33866 16.5131 9.99735C14.7203 10.408 12.6336 10.7429 10.1031 10.7429H10.1047ZM1.56854 7.55529C2.80537 8.17291 5.82873 8.80475 10.1047 8.80475C14.3807 8.80475 17.404 8.17291 18.6409 7.55529C17.404 6.93767 14.3807 6.30583 10.1047 6.30583C5.82873 6.30583 2.80537 6.93925 1.56854 7.55529Z" fill="#272828" style="fill:#272828;fill:color(display-p3 0.1529 0.1569 0.1569);fill-opacity:1;"/>
<path d="M9.83293 6.41754C12.3856 6.41754 14.7202 6.50758 16.5194 6.65606C16.1434 3.29625 13.2938 0.683594 9.83293 0.683594C6.37203 0.683594 3.52243 3.29625 3.14648 6.65606C4.94565 6.50758 7.2803 6.41754 9.83293 6.41754Z" fill="#BCBCBC" style="fill:#BCBCBC;fill:color(display-p3 0.7373 0.7373 0.7373);fill-opacity:1;"/>
<path d="M3.14677 6.58813C3.11833 6.83771 3.10254 7.08886 3.10254 7.34634C3.10254 7.60381 3.11833 7.85497 3.14677 8.10455C4.94593 8.25303 7.28058 8.34307 9.83322 8.34307C12.3858 8.34307 14.7205 8.25303 16.5197 8.10455C16.5481 7.85497 16.5639 7.60381 16.5639 7.34634C16.5639 7.08886 16.5481 6.83771 16.5197 6.58813C14.7205 6.43965 12.3858 6.34961 9.83322 6.34961C7.28058 6.34961 4.94593 6.43965 3.14677 6.58813Z" fill="#BCBCBC" style="fill:#BCBCBC;fill:color(display-p3 0.7373 0.7373 0.7373);fill-opacity:1;"/>
<path d="M6.39335 3.46248C7.34949 3.46248 8.12459 2.68738 8.12459 1.73124C8.12459 0.775104 7.34949 0 6.39335 0C5.43721 0 4.66211 0.775104 4.66211 1.73124C4.66211 2.68738 5.43721 3.46248 6.39335 3.46248Z" fill="#BCBCBC" style="fill:#BCBCBC;fill:color(display-p3 0.7373 0.7373 0.7373);fill-opacity:1;"/>
<path d="M13.0926 3.46248C14.0487 3.46248 14.8238 2.68738 14.8238 1.73124C14.8238 0.775104 14.0487 0 13.0926 0C12.1364 0 11.3613 0.775104 11.3613 1.73124C11.3613 2.68738 12.1364 3.46248 13.0926 3.46248Z" fill="#BCBCBC" style="fill:#BCBCBC;fill:color(display-p3 0.7373 0.7373 0.7373);fill-opacity:1;"/>
<path d="M8.22636 7.96C9.1825 7.96 9.9576 6.85251 9.9576 5.48635C9.9576 4.12019 9.1825 3.0127 8.22636 3.0127C7.27022 3.0127 6.49512 4.12019 6.49512 5.48635C6.49512 6.85251 7.27022 7.96 8.22636 7.96Z" fill="white" style="fill:white;fill-opacity:1;"/>
<path d="M11.4407 7.96C12.3969 7.96 13.172 6.85251 13.172 5.48635C13.172 4.12019 12.3969 3.0127 11.4407 3.0127C10.4846 3.0127 9.70947 4.12019 9.70947 5.48635C9.70947 6.85251 10.4846 7.96 11.4407 7.96Z" fill="white" style="fill:white;fill-opacity:1;"/>
<path d="M8.22693 3.71094C8.04843 3.71094 7.88099 3.77886 7.73093 3.89733L7.76726 4L7.95524 4.53707L7.39606 4.43124L7.33445 4.42018C7.18439 4.73294 7.09277 5.12626 7.09277 5.55433C7.09277 6.57159 7.59983 7.39773 8.22693 7.39773C8.85403 7.39773 9.36108 6.57317 9.36108 5.55433C9.36108 4.53549 8.85403 3.71094 8.22693 3.71094Z" fill="#444444" style="fill:#444444;fill:color(display-p3 0.2667 0.2667 0.2667);fill-opacity:1;"/>
<path d="M11.4413 3.71094C11.2628 3.71094 11.0953 3.77886 10.9453 3.89733L10.9816 4L11.1696 4.53707L10.6104 4.43124L10.5488 4.42018C10.3987 4.73294 10.3071 5.12626 10.3071 5.55433C10.3071 6.57159 10.8142 7.39773 11.4413 7.39773C12.0684 7.39773 12.5754 6.57317 12.5754 5.55433C12.5754 4.53549 12.0684 3.71094 11.4413 3.71094Z" fill="#444444" style="fill:#444444;fill:color(display-p3 0.2667 0.2667 0.2667);fill-opacity:1;"/>
</svg>
