<svg width="10" height="9" viewBox="0 0 10 9" fill="none" xmlns="http://www.w3.org/2000/svg">
<path d="M9 4.5C9 6.433 7.3639 8 5.34566 8C4.88273 8 4.43991 7.91756 4.03232 7.76716C3.9578 7.73967 3.92054 7.72592 3.89091 7.71938C3.86176 7.71294 3.84067 7.71025 3.81078 7.70916C3.7804 7.70805 3.74706 7.71135 3.68039 7.71795L1.47875 7.93592C1.26884 7.9567 1.16389 7.96709 1.10198 7.93092C1.04805 7.89942 1.01132 7.84679 1.00155 7.78702C0.990324 7.7184 1.04048 7.62949 1.14078 7.45167L1.84399 6.20504C1.9019 6.10238 1.93085 6.05104 1.94397 6.00169C1.95692 5.95294 1.96005 5.91779 1.95591 5.86765C1.95172 5.81687 1.92846 5.75078 1.88194 5.61861C1.75833 5.26736 1.69132 4.89117 1.69132 4.5C1.69132 2.567 3.32743 1 5.34566 1C7.3639 1 9 2.567 9 4.5Z" stroke="black" style="stroke:black;stroke-opacity:1;" stroke-width="0.5" stroke-linecap="round" stroke-linejoin="round"/>
</svg>
