<svg width="20" height="14" viewBox="0 0 20 14" fill="none" xmlns="http://www.w3.org/2000/svg">
<path d="M9.83293 8.12535C7.2803 8.12535 4.94565 8.04531 3.14648 7.91333C3.52243 10.8998 6.37203 13.2222 9.83293 13.2222C13.2938 13.2222 16.1434 10.8998 16.5194 7.91333C14.7202 8.04531 12.3856 8.12535 9.83293 8.12535Z" fill="#BCBCBC" style="fill:#BCBCBC;fill:color(display-p3 0.7373 0.7373 0.7373);fill-opacity:1;"/>
<path d="M10.1047 10.3272C7.57418 10.3272 4.9015 10.0295 3.10865 9.66442C0.233781 9.07892 0 8.34037 0 7.50353C0 6.6681 0.549701 6.26231 3.42299 5.67681C5.21584 5.31174 7.25352 5.52236 9.78246 5.52236C12.3114 5.52236 14.5639 5.37352 16.3568 5.73859C19.2316 6.32409 19.6218 6.6681 19.6218 7.50353C19.6218 8.33896 19.388 9.07892 16.5131 9.66442C14.7203 10.0295 12.6336 10.3272 10.1031 10.3272H10.1047ZM1.56854 7.4937C2.80537 8.0427 5.82873 8.60433 10.1047 8.60433C14.3807 8.60433 17.404 8.0427 18.6409 7.4937C17.404 6.9447 14.3807 6.38306 10.1047 6.38306C5.82873 6.38306 2.80537 6.94611 1.56854 7.4937Z" fill="#272828" style="fill:#272828;fill:color(display-p3 0.1529 0.1569 0.1569);fill-opacity:1;"/>
<path d="M9.83293 6.48259C12.3856 6.48259 14.7202 6.56262 16.5194 6.6946C16.1434 3.70811 13.2938 1.38574 9.83293 1.38574C6.37203 1.38574 3.52243 3.70811 3.14648 6.6946C4.94565 6.56262 7.2803 6.48259 9.83293 6.48259Z" fill="#BCBCBC" style="fill:#BCBCBC;fill:color(display-p3 0.7373 0.7373 0.7373);fill-opacity:1;"/>
<path d="M3.14579 6.63414C3.11736 6.85598 3.10156 7.07923 3.10156 7.3081C3.10156 7.53697 3.11736 7.76022 3.14579 7.98206C4.94496 8.11405 7.2796 8.19408 9.83224 8.19408C12.3849 8.19408 14.7195 8.11405 16.5187 7.98206C16.5471 7.76022 16.5629 7.53697 16.5629 7.3081C16.5629 7.07923 16.5471 6.85598 16.5187 6.63414C14.7195 6.50215 12.3849 6.42212 9.83224 6.42212C7.2796 6.42212 4.94496 6.50215 3.14579 6.63414Z" fill="#BCBCBC" style="fill:#BCBCBC;fill:color(display-p3 0.7373 0.7373 0.7373);fill-opacity:1;"/>
<path d="M6.39335 3.8556C7.34949 3.8556 8.12459 3.16662 8.12459 2.31671C8.12459 1.46681 7.34949 0.777832 6.39335 0.777832C5.43721 0.777832 4.66211 1.46681 4.66211 2.31671C4.66211 3.16662 5.43721 3.8556 6.39335 3.8556Z" fill="#BCBCBC" style="fill:#BCBCBC;fill:color(display-p3 0.7373 0.7373 0.7373);fill-opacity:1;"/>
<path d="M13.0926 3.8556C14.0487 3.8556 14.8238 3.16662 14.8238 2.31671C14.8238 1.46681 14.0487 0.777832 13.0926 0.777832C12.1364 0.777832 11.3613 1.46681 11.3613 2.31671C11.3613 3.16662 12.1364 3.8556 13.0926 3.8556Z" fill="#BCBCBC" style="fill:#BCBCBC;fill:color(display-p3 0.7373 0.7373 0.7373);fill-opacity:1;"/>
<path d="M8.22734 7.85293C9.18347 7.85293 9.95858 6.86849 9.95858 5.65413C9.95858 4.43976 9.18347 3.45532 8.22734 3.45532C7.2712 3.45532 6.49609 4.43976 6.49609 5.65413C6.49609 6.86849 7.2712 7.85293 8.22734 7.85293Z" fill="white" style="fill:white;fill-opacity:1;"/>
<path d="M11.4402 7.85293C12.3964 7.85293 13.1715 6.86849 13.1715 5.65413C13.1715 4.43976 12.3964 3.45532 11.4402 3.45532C10.4841 3.45532 9.70898 4.43976 9.70898 5.65413C9.70898 6.86849 10.4841 7.85293 11.4402 7.85293Z" fill="white" style="fill:white;fill-opacity:1;"/>
<path d="M8.22595 4.07593C8.04746 4.07593 7.88002 4.1363 7.72996 4.24161L7.76629 4.33288L7.95426 4.81027L7.39508 4.71619L7.33348 4.70636C7.18341 4.98437 7.0918 5.33399 7.0918 5.7145C7.0918 6.61873 7.59885 7.35307 8.22595 7.35307C8.85305 7.35307 9.3601 6.62014 9.3601 5.7145C9.3601 4.80886 8.85305 4.07593 8.22595 4.07593Z" fill="#444444" style="fill:#444444;fill:color(display-p3 0.2667 0.2667 0.2667);fill-opacity:1;"/>
<path d="M11.4408 4.07593C11.2623 4.07593 11.0949 4.1363 10.9448 4.24161L10.9811 4.33288L11.1691 4.81027L10.6099 4.71619L10.5483 4.70636C10.3983 4.98437 10.3066 5.33399 10.3066 5.7145C10.3066 6.61873 10.8137 7.35307 11.4408 7.35307C12.0679 7.35307 12.5749 6.62014 12.5749 5.7145C12.5749 4.80886 12.0679 4.07593 11.4408 4.07593Z" fill="#444444" style="fill:#444444;fill:color(display-p3 0.2667 0.2667 0.2667);fill-opacity:1;"/>
</svg>
