<svg width="22" height="21" viewBox="0 0 22 21" fill="none" xmlns="http://www.w3.org/2000/svg">
<path d="M11.0009 19.6666H20.7509M14.2509 3.41662L17.5009 6.66662M15.7415 1.92379C16.1728 1.49253 16.7577 1.25024 17.3676 1.25024C17.9775 1.25024 18.5624 1.49253 18.9937 1.92379C19.425 2.35505 19.6673 2.93997 19.6673 3.54987C19.6673 4.15977 19.425 4.74469 18.9937 5.17596L5.98287 18.1879C5.72514 18.4456 5.40656 18.6341 5.05662 18.736L1.94529 19.6439C1.85207 19.6711 1.75325 19.6727 1.65919 19.6486C1.56512 19.6245 1.47927 19.5756 1.4106 19.5069C1.34194 19.4382 1.293 19.3524 1.2689 19.2583C1.2448 19.1642 1.24643 19.0654 1.27362 18.9722L2.18145 15.8609C2.28353 15.5113 2.47205 15.1931 2.72962 14.9357L15.7415 1.92379Z" stroke="white" style="stroke:white;stroke-opacity:1;" stroke-width="1.5" stroke-linecap="round" stroke-linejoin="round"/>
</svg>
