<svg width="26" height="25" viewBox="0 0 26 25" fill="none" xmlns="http://www.w3.org/2000/svg">
<path d="M10.993 3.84703C11.7265 2.31874 13.9094 2.33871 14.6148 3.88016L16.0465 7.00892C16.3292 7.62675 16.9062 8.05879 17.5787 8.1561L21.7262 8.75632C23.3561 8.99219 24.0184 10.9867 22.8533 12.1506L19.7671 15.2337C19.2886 15.7117 19.0841 16.3992 19.2235 17.061L19.9253 20.3916C20.2695 22.0253 18.5788 23.3366 17.0821 22.5969L13.7254 20.938C13.1669 20.6619 12.5116 20.6619 11.9531 20.938L8.22728 22.7794C6.80073 23.4844 5.16207 22.322 5.35607 20.7426L5.88319 16.451C5.95705 15.8497 5.7544 15.2474 5.33214 14.813L2.72413 12.1304C1.58731 10.961 2.25275 8.9958 3.86615 8.75768L7.94869 8.15516C8.60605 8.05814 9.1723 7.64098 9.45979 7.04192L10.993 3.84703Z" fill="#4D94FF" style="fill:#4D94FF;fill:color(display-p3 0.3020 0.5804 1.0000);fill-opacity:1;"/>
</svg>
