<svg width="27" height="25" viewBox="0 0 27 25" fill="none" xmlns="http://www.w3.org/2000/svg">
<path d="M11.7079 3.84703C12.4413 2.31874 14.6243 2.33871 15.3296 3.88016L16.7613 7.00892C17.044 7.62675 17.6211 8.05879 18.2935 8.1561L22.4411 8.75632C24.071 8.99219 24.7332 10.9867 23.5681 12.1506L20.4819 15.2337C20.0034 15.7117 19.7989 16.3992 19.9384 17.061L20.6401 20.3916C20.9843 22.0253 19.2936 23.3366 17.7969 22.5969L14.4402 20.938C13.8817 20.6619 13.2265 20.6619 12.668 20.938L8.94213 22.7794C7.51558 23.4844 5.87692 22.322 6.07091 20.7426L6.59804 16.451C6.67189 15.8497 6.46925 15.2474 6.04698 14.813L3.43897 12.1304C2.30216 10.961 2.96759 8.9958 4.58099 8.75768L8.66353 8.15516C9.32089 8.05814 9.88714 7.64098 10.1746 7.04192L11.7079 3.84703Z" fill="#BDBDBD" style="fill:#BDBDBD;fill:color(display-p3 0.7417 0.7417 0.7417);fill-opacity:1;"/>
</svg>
