<svg width="24" height="24" viewBox="0 0 24 24" fill="none" xmlns="http://www.w3.org/2000/svg">
<path d="M21.7778 13.2222V19.0889C21.7778 20.4579 21.7778 21.1424 21.5113 21.6653C21.277 22.1253 20.903 22.4992 20.4431 22.7336C19.9202 23 19.2357 23 17.8667 23H6.13333C4.76432 23 4.07981 23 3.55691 22.7336C3.09696 22.4992 2.72301 22.1253 2.48865 21.6653C2.22222 21.1424 2.22222 20.4579 2.22222 19.0889V13.2222M8.33333 9.55556H15.6667M8.68254 14.4444H15.3175C17.9238 14.4444 19.227 14.4444 20.2323 13.9603C21.2302 13.4797 22.0353 12.6746 22.5158 11.6768C23 10.6714 23 9.36824 23 6.7619C23 4.80715 23 3.82977 22.6369 3.07576C22.2765 2.32736 21.6726 1.72352 20.9242 1.36311C20.1702 1 19.1928 1 17.2381 1H6.7619C4.80715 1 3.82977 1 3.07576 1.36311C2.32736 1.72352 1.72352 2.32736 1.36311 3.07576C1 3.82977 1 4.80715 1 6.7619C1 9.36824 1 10.6714 1.48415 11.6768C1.9647 12.6746 2.76982 13.4797 3.76768 13.9603C4.77303 14.4444 6.0762 14.4444 8.68254 14.4444Z" stroke="white" style="stroke:white;stroke-opacity:1;" stroke-width="2" stroke-linecap="round" stroke-linejoin="round"/>
</svg>
