<svg width="254" height="33" viewBox="0 0 254 33" fill="none" xmlns="http://www.w3.org/2000/svg">
<path d="M30.0809 0.932462C30.672 1.55203 30.964 2.2985 30.964 3.17933V17.2727C30.964 20.1466 30.2874 22.7741 28.9343 25.1554C27.5812 27.5441 25.7651 29.4476 23.4862 30.8659C21.2072 32.2842 18.6862 32.9933 15.9158 32.9933C13.1455 32.9933 10.6671 32.2842 8.39528 30.8659C6.11633 29.4476 4.30029 27.5441 2.94717 25.1554C1.59404 22.7667 0.91748 20.1391 0.91748 17.2727V3.17933C0.91748 2.30596 1.20947 1.55203 1.80057 0.932462C2.39168 0.312892 3.10385 0.00683594 3.94421 0.00683594C4.78457 0.00683594 5.44689 0.320357 6.03799 0.932462C6.6291 1.54457 6.92109 2.2985 6.92109 3.17933V17.2727C6.92109 19.8704 7.79706 22.0949 9.55612 23.9386C11.3152 25.7824 13.4303 26.7006 15.9158 26.7006C18.4013 26.7006 20.5592 25.7824 22.3182 23.9386C24.0773 22.0949 24.9533 19.8778 24.9533 17.2727V3.17933C24.9533 2.30596 25.2381 1.55203 25.815 0.932462C26.3919 0.312892 27.0969 0.00683594 27.9301 0.00683594C28.7634 0.00683594 29.4827 0.320357 30.0738 0.932462H30.0809Z" fill="white" style="fill:white;fill-opacity:1;"/>
<path d="M63.7169 0.933086C64.308 1.55266 64.6 2.29912 64.6 3.17995V29.8289C64.6 31.1576 63.9519 32.143 62.6558 32.7775C62.3068 32.9268 61.9507 33.0014 61.5733 33.0014C60.74 33.0014 59.9851 32.6506 59.3228 31.9563L41.5114 11.3314V29.8214C41.5114 30.6948 41.2123 31.4487 40.6283 32.0683C40.0372 32.6879 39.3393 32.9939 38.5345 32.9939C37.7298 32.9939 36.982 32.6879 36.3909 32.0683C35.7998 31.4487 35.5078 30.7023 35.5078 29.8214V3.17249C35.5078 1.87364 36.1559 0.888289 37.452 0.223932C38.6912 -0.231415 39.788 0.0447877 40.7352 1.03759L58.5466 21.6625V3.17249C58.5466 2.29912 58.8457 1.54518 59.4297 0.925614C60.0136 0.306045 60.7329 0 61.5733 0C62.4136 0 63.1258 0.31351 63.7169 0.925614V0.933086Z" fill="white" style="fill:white;fill-opacity:1;"/>
<path d="M74.9835 26.7006V6.30704H72.6903C71.8571 6.30704 71.1378 6.00844 70.5467 5.4038C69.9556 4.79916 69.6636 4.06016 69.6636 3.17933C69.6636 2.2985 69.9556 1.55203 70.5467 0.932462C71.1378 0.312892 71.8499 0.00683594 72.6903 0.00683594H83.2874C84.1207 0.00683594 84.84 0.320357 85.4311 0.932462C86.0222 1.54457 86.3142 2.2985 86.3142 3.17933C86.3142 4.06016 86.015 4.79916 85.4311 5.4038C84.84 6.00844 84.1278 6.30704 83.2874 6.30704H80.9942V26.7006H83.2874C84.1207 26.7006 84.84 27.0141 85.4311 27.6262C86.0222 28.2383 86.3142 28.9773 86.3142 29.8208C86.3142 30.6643 86.015 31.4481 85.4311 32.0677C84.84 32.6872 84.1278 32.9933 83.2874 32.9933H72.6903C71.8571 32.9933 71.1378 32.6872 70.5467 32.0677C69.9556 31.4481 69.6636 30.7016 69.6636 29.8208C69.6636 28.94 69.9556 28.2457 70.5467 27.6262C71.1378 27.0066 71.8499 26.7006 72.6903 26.7006H74.9835Z" fill="white" style="fill:white;fill-opacity:1;"/>
<path d="M119.088 4.53845L107.067 31.1874L106.896 31.5532C106.896 31.5532 106.853 31.6129 106.853 31.6427C106.768 31.7622 106.682 31.8667 106.597 31.9637L106.34 32.2325L106.255 32.322L105.999 32.5012L105.956 32.546C105.87 32.6057 105.771 32.6505 105.65 32.6803C105.65 32.7102 105.635 32.7251 105.607 32.7251C105.578 32.7251 105.55 32.7401 105.521 32.7699L105.265 32.8595C105.208 32.8595 105.165 32.8744 105.137 32.9043C105.051 32.9043 104.966 32.9192 104.881 32.9491H104.752C104.638 32.9789 104.51 32.9939 104.361 32.9939C104.247 32.9939 104.133 32.9789 104.012 32.9491H103.883C103.798 32.9192 103.713 32.9043 103.627 32.9043C103.57 32.8744 103.527 32.8595 103.499 32.8595L103.243 32.7699C103.243 32.7699 103.186 32.7251 103.157 32.7251C103.129 32.7251 103.114 32.7102 103.114 32.6803C103 32.6505 102.901 32.6057 102.808 32.546L102.765 32.5012L102.509 32.322L102.424 32.2325L102.167 31.9637C102.082 31.8742 101.996 31.7696 101.911 31.6427C101.911 31.6129 101.897 31.583 101.868 31.5532L101.697 31.1874L89.6757 4.53845C89.0418 2.69467 89.519 1.29132 91.1 0.320906C92.8306 -0.343451 94.1695 0.156683 95.1238 1.81384L104.375 22.4388L113.669 1.81384C114.623 0.149218 115.962 -0.343451 117.692 0.320906C119.281 1.29132 119.751 2.69467 119.117 4.53845H119.088Z" fill="white" style="fill:white;fill-opacity:1;"/>
<path d="M125.049 30.232C123.29 28.3882 122.414 26.1563 122.414 23.5212V9.47268C122.414 6.87497 123.29 4.64303 125.049 2.78433C126.808 0.925618 128.938 0 131.452 0H148.444C149.277 0 149.989 0.31351 150.58 0.925614C151.172 1.53772 151.464 2.29166 151.464 3.17249C151.464 4.05333 151.172 4.79233 150.58 5.39697C149.989 6.00161 149.277 6.30019 148.444 6.30019H131.452C130.618 6.30019 129.899 6.61371 129.315 7.22581C128.731 7.83792 128.432 8.59185 128.432 9.47268V13.3693H147.069C147.874 13.3693 148.579 13.6678 149.163 14.2725C149.754 14.8771 150.046 15.6161 150.046 16.4895C150.046 17.3629 149.747 18.1168 149.163 18.7364C148.572 19.3559 147.874 19.662 147.069 19.662H128.432V23.5138C128.432 24.3871 128.731 25.1411 129.315 25.7606C129.899 26.3802 130.618 26.6863 131.452 26.6863H148.444C149.277 26.6863 149.989 26.9998 150.58 27.6119C151.172 28.224 151.464 28.963 151.464 29.8065C151.464 30.65 151.172 31.4338 150.58 32.0534C149.989 32.673 149.277 32.979 148.444 32.979H131.452C128.945 32.979 126.808 32.0608 125.049 30.2171V30.232Z" fill="white" style="fill:white;fill-opacity:1;"/>
<path d="M184.679 22.6398C185.313 23.8043 185.79 24.8941 186.104 25.9018C186.417 26.9096 186.638 27.7531 186.752 28.4175C186.866 29.0818 186.923 29.4625 186.923 29.5521C186.923 31.4854 186.011 32.635 184.202 32.9933H183.946C183.169 32.9933 182.5 32.7246 181.937 32.1796C181.375 31.6347 181.033 30.9554 180.919 30.1418C180.919 30.0522 180.876 29.7685 180.791 29.3057C180.705 28.8429 180.534 28.2457 180.271 27.5366C180.015 26.8275 179.637 26.081 179.146 25.2897C178.654 24.506 177.999 23.7819 177.18 23.1175C176.361 22.4532 175.343 21.9232 174.132 21.535H162.153V29.8283C162.153 30.7016 161.861 31.4556 161.27 32.0751C160.679 32.6947 159.981 33.0008 159.176 33.0008C158.372 33.0008 157.624 32.6947 157.033 32.0751C156.442 31.4556 156.143 30.7091 156.143 29.8283V3.17933C156.143 2.30596 156.442 1.55203 157.033 0.932462C157.624 0.312892 158.336 0.00683594 159.176 0.00683594H175.912C178.768 0.00683594 181.197 1.05936 183.198 3.15694C185.199 5.25451 186.203 7.79997 186.203 10.7933C186.203 14.2345 184.864 17.0637 182.18 19.2657C183.219 20.3556 184.053 21.4753 184.686 22.6398H184.679ZM162.153 15.2273H175.905C177.088 15.2273 178.099 14.7869 178.932 13.9136C179.765 13.0402 180.185 11.9951 180.185 10.7858C180.185 9.57657 179.765 8.48673 178.932 7.61336C178.099 6.73999 177.088 6.29956 175.905 6.29956H162.153V15.2273Z" fill="white" style="fill:white;fill-opacity:1;"/>
<path d="M217.04 16.2506C218.871 18.169 219.789 20.4756 219.789 23.1629C219.789 25.8502 218.871 28.2016 217.04 30.12C215.21 32.0385 212.995 33.0014 210.403 33.0014H193.802C192.969 33.0014 192.25 32.6953 191.658 32.0758C191.067 31.4562 190.768 30.7097 190.768 29.8289C190.768 28.9481 191.067 28.2538 191.658 27.6343C192.25 27.0147 192.962 26.7087 193.802 26.7087H210.403C211.322 26.7087 212.119 26.3578 212.781 25.6636C213.444 24.9694 213.779 24.1408 213.779 23.1704C213.779 22.2 213.444 21.3789 212.781 20.6996C212.119 20.0203 211.329 19.6769 210.403 19.6769H199.2C196.608 19.6769 194.393 18.714 192.563 16.7956C190.733 14.8771 189.814 12.5556 189.814 9.83846C189.814 7.12131 190.733 4.79978 192.563 2.88136C194.393 0.962934 196.608 0 199.2 0H215.63C216.463 0 217.176 0.31351 217.745 0.925614C218.322 1.54518 218.607 2.29166 218.607 3.17249C218.607 4.05333 218.322 4.79233 217.745 5.39697C217.168 6.00161 216.463 6.30019 215.63 6.30019H199.2C198.275 6.30019 197.484 6.65104 196.822 7.34525C196.159 8.03947 195.825 8.86805 195.825 9.83846C195.825 10.8089 196.159 11.6374 196.822 12.3317C197.484 13.0259 198.275 13.3767 199.2 13.3767H210.403C212.995 13.3767 215.21 14.3397 217.04 16.2581V16.2506Z" fill="white" style="fill:white;fill-opacity:1;"/>
<path d="M226.832 30.232C225.073 28.3882 224.197 26.1563 224.197 23.5212V9.47268C224.197 6.87497 225.073 4.64303 226.832 2.78433C228.591 0.925618 230.721 0 233.235 0H250.227C251.06 0 251.78 0.31351 252.371 0.925614C252.962 1.54518 253.261 2.29166 253.261 3.17249C253.261 4.05333 252.962 4.79233 252.371 5.39697C251.78 6.00161 251.067 6.30019 250.227 6.30019H233.235C232.401 6.30019 231.682 6.61371 231.091 7.22581C230.5 7.84538 230.201 8.59185 230.201 9.47268V13.3693H248.838C249.643 13.3693 250.341 13.6678 250.932 14.2725C251.523 14.8771 251.815 15.6161 251.815 16.4895C251.815 17.3629 251.523 18.1168 250.932 18.7364C250.341 19.3559 249.643 19.662 248.838 19.662H230.201V23.5138C230.201 24.3871 230.5 25.1411 231.091 25.7606C231.682 26.3802 232.394 26.6863 233.235 26.6863H250.227C251.06 26.6863 251.78 26.9998 252.371 27.6119C252.962 28.2315 253.261 28.963 253.261 29.8065C253.261 30.65 252.962 31.4338 252.371 32.0534C251.78 32.673 251.067 32.979 250.227 32.979H233.235C230.728 32.979 228.591 32.0608 226.832 30.2171V30.232Z" fill="white" style="fill:white;fill-opacity:1;"/>
</svg>
