<svg width="134" height="18" viewBox="0 0 134 18" fill="none" xmlns="http://www.w3.org/2000/svg">
<path d="M15.4863 0.507626C15.8002 0.844628 15.9553 1.25065 15.9553 1.72976V9.39555C15.9553 10.9587 15.596 12.388 14.8775 13.6832C14.1589 14.9825 13.1946 16.0178 11.9844 16.7893C10.7743 17.5607 9.43551 17.9465 7.9644 17.9465C6.49329 17.9465 5.17724 17.5607 3.97085 16.7893C2.76069 16.0178 1.79634 14.9825 1.0778 13.6832C0.359268 12.3839 0 10.9547 0 9.39555V1.72976C0 1.25471 0.155052 0.844628 0.468939 0.507626C0.782826 0.170624 1.161 0.00415039 1.60725 0.00415039C2.0535 0.00415039 2.4052 0.174684 2.71909 0.507626C3.03298 0.840567 3.18803 1.25065 3.18803 1.72976V9.39555C3.18803 10.8085 3.65319 12.0185 4.58728 13.0214C5.52138 14.0243 6.64456 14.5237 7.9644 14.5237C9.28424 14.5237 10.4301 14.0243 11.3642 13.0214C12.2983 12.0185 12.7635 10.8126 12.7635 9.39555V1.72976C12.7635 1.25471 12.9147 0.844628 13.2211 0.507626C13.5274 0.170624 13.9018 0.00415039 14.3442 0.00415039C14.7867 0.00415039 15.1687 0.174684 15.4826 0.507626H15.4863Z" fill="#0066FF" style="fill:#0066FF;fill:color(display-p3 0.0000 0.4000 1.0000);fill-opacity:1;"/>
<path d="M33.3453 0.507533C33.6592 0.844535 33.8142 1.25056 33.8142 1.72967V16.2248C33.8142 16.9475 33.4701 17.4835 32.7818 17.8286C32.5965 17.9098 32.4074 17.9504 32.207 17.9504C31.7645 17.9504 31.3637 17.7596 31.0119 17.382L21.5538 6.16348V16.2208C21.5538 16.6958 21.3949 17.1059 21.0848 17.4429C20.7709 17.7799 20.4003 17.9464 19.973 17.9464C19.5456 17.9464 19.1485 17.7799 18.8347 17.4429C18.5208 17.1059 18.3657 16.6999 18.3657 16.2208V1.72561C18.3657 1.01913 18.7099 0.483167 19.3981 0.121803C20.0562 -0.125873 20.6386 0.0243613 21.1415 0.564377L30.5997 11.7829V1.72561C30.5997 1.25056 30.7586 0.840471 31.0687 0.503469C31.3788 0.166467 31.7607 0 32.207 0C32.6532 0 33.0314 0.170527 33.3453 0.503469V0.507533Z" fill="#0066FF" style="fill:#0066FF;fill:color(display-p3 0.0000 0.4000 1.0000);fill-opacity:1;"/>
<path d="M39.3323 14.5234V3.43077H38.1146C37.6721 3.43077 37.2902 3.26836 36.9763 2.93948C36.6624 2.61059 36.5073 2.20863 36.5073 1.72952C36.5073 1.25041 36.6624 0.844383 36.9763 0.507381C37.2902 0.170379 37.6683 0.00390625 38.1146 0.00390625H43.7418C44.1843 0.00390625 44.5663 0.17444 44.8802 0.507381C45.194 0.840323 45.3491 1.25041 45.3491 1.72952C45.3491 2.20863 45.1903 2.61059 44.8802 2.93948C44.5663 3.26836 44.1881 3.43077 43.7418 3.43077H42.5241V14.5234H43.7418C44.1843 14.5234 44.5663 14.6939 44.8802 15.0269C45.194 15.3598 45.3491 15.7618 45.3491 16.2206C45.3491 16.6794 45.1903 17.1057 44.8802 17.4427C44.5663 17.7797 44.1881 17.9462 43.7418 17.9462H38.1146C37.6721 17.9462 37.2902 17.7797 36.9763 17.4427C36.6624 17.1057 36.5073 16.6997 36.5073 16.2206C36.5073 15.7415 36.6624 15.3639 36.9763 15.0269C37.2902 14.6899 37.6683 14.5234 38.1146 14.5234H39.3323Z" fill="#0066FF" style="fill:#0066FF;fill:color(display-p3 0.0000 0.4000 1.0000);fill-opacity:1;"/>
<path d="M62.7521 2.46852L56.3684 16.9637L56.2777 17.1626C56.2777 17.1626 56.255 17.1951 56.255 17.2113C56.2096 17.2763 56.1642 17.3332 56.1188 17.3859L55.9827 17.5321L55.9373 17.5808L55.8012 17.6783L55.7785 17.7026C55.7331 17.7351 55.6802 17.7595 55.6159 17.7757C55.6159 17.792 55.6083 17.8001 55.5932 17.8001C55.578 17.8001 55.5629 17.8082 55.5478 17.8244L55.4116 17.8732C55.3814 17.8732 55.3587 17.8813 55.3436 17.8975C55.2982 17.8975 55.2528 17.9057 55.2074 17.9219H55.1394C55.0789 17.9381 55.0108 17.9463 54.9314 17.9463C54.8709 17.9463 54.8103 17.9381 54.7461 17.9219H54.678C54.6326 17.9057 54.5872 17.8975 54.5418 17.8975C54.5116 17.8813 54.4889 17.8732 54.4738 17.8732L54.3376 17.8244C54.3376 17.8244 54.3074 17.8001 54.2922 17.8001C54.2771 17.8001 54.2696 17.792 54.2696 17.7757C54.209 17.7595 54.1561 17.7351 54.1069 17.7026L54.0842 17.6783L53.9481 17.5808L53.9027 17.5321L53.7666 17.3859C53.7212 17.3372 53.6758 17.2804 53.6304 17.2113C53.6304 17.1951 53.6229 17.1789 53.6077 17.1626L53.517 16.9637L47.1334 2.46852C46.7968 1.46563 47.0502 0.702305 47.8897 0.174471C48.8087 -0.186893 49.5197 0.085145 50.0264 0.986524L54.9389 12.205L59.8741 0.986524C60.3809 0.0810847 61.0919 -0.186893 62.0108 0.174471C62.8542 0.702305 63.1038 1.46563 62.7672 2.46852H62.7521Z" fill="#0066FF" style="fill:#0066FF;fill:color(display-p3 0.0000 0.4000 1.0000);fill-opacity:1;"/>
<path d="M66.1268 16.4441C65.1927 15.4412 64.7275 14.2272 64.7275 12.7939V5.15247C64.7275 3.7395 65.1927 2.52548 66.1268 1.51448C67.0609 0.503471 68.1916 0 69.5266 0H78.5499C78.9924 0 79.3705 0.170527 79.6844 0.503469C79.9983 0.836411 80.1534 1.2465 80.1534 1.72561C80.1534 2.20472 79.9983 2.60669 79.6844 2.93557C79.3705 3.26445 78.9924 3.42686 78.5499 3.42686H69.5266C69.0841 3.42686 68.7022 3.59739 68.3921 3.93033C68.082 4.26328 67.9231 4.67336 67.9231 5.15247V7.27193H77.82C78.2474 7.27193 78.6217 7.43435 78.9319 7.76323C79.2457 8.09211 79.4008 8.49408 79.4008 8.96913C79.4008 9.44418 79.242 9.85426 78.9319 10.1913C78.618 10.5283 78.2474 10.6947 77.82 10.6947H67.9231V12.7898C67.9231 13.2649 68.082 13.675 68.3921 14.012C68.7022 14.349 69.0841 14.5155 69.5266 14.5155H78.5499C78.9924 14.5155 79.3705 14.686 79.6844 15.0189C79.9983 15.3519 80.1534 15.7538 80.1534 16.2126C80.1534 16.6714 79.9983 17.0978 79.6844 17.4348C79.3705 17.7718 78.9924 17.9383 78.5499 17.9383H69.5266C68.1954 17.9383 67.0609 17.4388 66.1268 16.4359V16.4441Z" fill="#0066FF" style="fill:#0066FF;fill:color(display-p3 0.0000 0.4000 1.0000);fill-opacity:1;"/>
<path d="M97.5803 12.3146C97.9169 12.948 98.1703 13.5408 98.3366 14.089C98.503 14.6371 98.6203 15.0959 98.6808 15.4573C98.7413 15.8186 98.7716 16.0257 98.7716 16.0744C98.7716 17.126 98.2875 17.7513 97.3269 17.9462H97.1908C96.7786 17.9462 96.4231 17.8 96.1243 17.5036C95.8256 17.2073 95.644 16.8378 95.5835 16.3952C95.5835 16.3465 95.5608 16.1922 95.5155 15.9404C95.4701 15.6887 95.3793 15.3639 95.2394 14.9782C95.1032 14.5924 94.9028 14.1864 94.6419 13.756C94.3809 13.3297 94.033 12.9359 93.5981 12.5745C93.1632 12.2131 92.6224 11.9249 91.9795 11.7137H85.6186V16.2247C85.6186 16.6997 85.4635 17.1098 85.1496 17.4468C84.8357 17.7838 84.4651 17.9503 84.0378 17.9503C83.6104 17.9503 83.2134 17.7838 82.8995 17.4468C82.5856 17.1098 82.4268 16.7038 82.4268 16.2247V1.72952C82.4268 1.25447 82.5856 0.844384 82.8995 0.507381C83.2134 0.170379 83.5915 0.00390625 84.0378 0.00390625H92.9249C94.4414 0.00390625 95.731 0.576404 96.7937 1.71734C97.8564 2.85827 98.3896 4.24282 98.3896 5.87099C98.3896 7.74277 97.6786 9.28162 96.2529 10.4794C96.805 11.0722 97.2475 11.6812 97.5841 12.3146H97.5803ZM85.6186 8.28279H92.9212C93.5489 8.28279 94.0859 8.04323 94.5284 7.56818C94.9709 7.09313 95.194 6.52469 95.194 5.86693C95.194 5.20917 94.9709 4.61637 94.5284 4.14132C94.0859 3.66627 93.5489 3.42671 92.9212 3.42671H85.6186V8.28279Z" fill="#0066FF" style="fill:#0066FF;fill:color(display-p3 0.0000 0.4000 1.0000);fill-opacity:1;"/>
<path d="M114.763 8.83919C115.735 9.88268 116.223 11.1373 116.223 12.599C116.223 14.0607 115.735 15.3397 114.763 16.3832C113.791 17.4267 112.615 17.9504 111.238 17.9504H102.423C101.981 17.9504 101.599 17.784 101.285 17.447C100.971 17.11 100.812 16.7039 100.812 16.2248C100.812 15.7457 100.971 15.3681 101.285 15.0311C101.599 14.6941 101.977 14.5276 102.423 14.5276H111.238C111.726 14.5276 112.15 14.3368 112.501 13.9592C112.853 13.5816 113.031 13.1309 113.031 12.6031C113.031 12.0752 112.853 11.6286 112.501 11.2591C112.15 10.8896 111.73 10.7029 111.238 10.7029H105.29C103.913 10.7029 102.737 10.1791 101.765 9.1356C100.793 8.09211 100.305 6.82936 100.305 5.35143C100.305 3.87349 100.793 2.61074 101.765 1.56726C102.737 0.523768 103.913 0 105.29 0H114.014C114.457 0 114.835 0.170527 115.137 0.503469C115.444 0.840471 115.595 1.2465 115.595 1.72561C115.595 2.20472 115.444 2.60669 115.137 2.93557C114.831 3.26445 114.457 3.42686 114.014 3.42686H105.29C104.798 3.42686 104.378 3.6177 104.026 3.9953C103.675 4.3729 103.497 4.82359 103.497 5.35143C103.497 5.87926 103.675 6.32995 104.026 6.70755C104.378 7.08516 104.798 7.276 105.29 7.276H111.238C112.615 7.276 113.791 7.79977 114.763 8.84326V8.83919Z" fill="#0066FF" style="fill:#0066FF;fill:color(display-p3 0.0000 0.4000 1.0000);fill-opacity:1;"/>
<path d="M119.966 16.4441C119.032 15.4412 118.567 14.2272 118.567 12.7939V5.15247C118.567 3.7395 119.032 2.52548 119.966 1.51448C120.9 0.503471 122.031 0 123.366 0H132.389C132.832 0 133.214 0.170527 133.528 0.503469C133.841 0.840471 134 1.2465 134 1.72561C134 2.20472 133.841 2.60669 133.528 2.93557C133.214 3.26445 132.835 3.42686 132.389 3.42686H123.366C122.923 3.42686 122.542 3.59739 122.228 3.93033C121.914 4.26734 121.755 4.67336 121.755 5.15247V7.27193H131.652C132.079 7.27193 132.45 7.43435 132.764 7.76323C133.078 8.09211 133.233 8.49408 133.233 8.96913C133.233 9.44418 133.078 9.85426 132.764 10.1913C132.45 10.5283 132.079 10.6947 131.652 10.6947H121.755V12.7898C121.755 13.2649 121.914 13.675 122.228 14.012C122.542 14.349 122.92 14.5155 123.366 14.5155H132.389C132.832 14.5155 133.214 14.686 133.528 15.0189C133.841 15.3559 134 15.7538 134 16.2126C134 16.6714 133.841 17.0978 133.528 17.4348C133.214 17.7718 132.835 17.9383 132.389 17.9383H123.366C122.035 17.9383 120.9 17.4388 119.966 16.4359V16.4441Z" fill="#0066FF" style="fill:#0066FF;fill:color(display-p3 0.0000 0.4000 1.0000);fill-opacity:1;"/>
</svg>
